<svg width="838" height="838" viewBox="0 0 838 838" fill="none" xmlns="http://www.w3.org/2000/svg">
<circle cx="419" cy="419" r="419" fill="#0D4FF7"/>
<path d="M313.308 643.868L418.846 705L524.383 643.869L453.724 521.078C442.633 523.63 430.934 524.995 418.846 524.995C406.757 524.995 395.058 523.63 383.966 521.078L313.308 643.868Z" fill="white"/>
<path d="M278.129 623.491L345.587 506.263C336.678 501.201 328.588 495.243 321.513 488.546L220.364 590.031L278.129 623.491Z" fill="white"/>
<path d="M220.364 249.385L321.513 350.87C328.588 344.174 336.678 338.215 345.586 333.154L278.129 215.925L220.364 249.385Z" fill="white"/>
<path d="M313.308 195.548L383.966 318.339C395.058 315.787 406.757 314.422 418.846 314.422C430.934 314.422 442.633 315.787 453.725 318.339L524.383 195.548L418.846 134.417L313.308 195.548Z" fill="white"/>
<path d="M559.562 215.925L492.104 333.154C519.063 348.469 538.524 372.006 545.071 399.33L665.109 399.33L665.109 277.062L559.562 215.925Z" fill="white"/>
<path d="M665.109 440.086L545.071 440.086C538.524 467.411 519.063 490.948 492.104 506.263L559.562 623.492L665.109 562.354L665.109 440.086Z" fill="white"/>
<path d="M452.696 419.708C452.696 410.33 460.274 402.727 469.622 402.727C478.969 402.727 486.547 410.33 486.547 419.708C486.547 429.087 478.969 436.69 469.622 436.69C460.274 436.69 452.696 429.087 452.696 419.708Z" fill="white"/>
<path d="M401.074 419.708C401.074 410.33 408.652 402.727 417.999 402.727C427.347 402.727 434.925 410.33 434.925 419.708C434.925 429.087 427.347 436.69 417.999 436.69C408.652 436.69 401.074 429.087 401.074 419.708Z" fill="white"/>
<path d="M349.452 419.708C349.452 410.33 357.03 402.727 366.377 402.727C375.725 402.727 383.303 410.33 383.303 419.708C383.303 429.087 375.725 436.69 366.377 436.69C357.03 436.69 349.452 429.087 349.452 419.708Z" fill="white"/>
</svg>
