<svg width="771" height="233" viewBox="0 0 771 233" fill="none" xmlns="http://www.w3.org/2000/svg">
<path d="M473.334 149.288L475.48 141.602C476.678 142.733 478.042 143.715 479.572 144.547C481.102 145.378 482.716 146.027 484.413 146.493C486.11 146.925 487.823 147.142 489.553 147.142C492.647 147.142 495.142 146.46 497.039 145.096C498.935 143.732 499.883 141.952 499.883 139.756C499.883 138.159 499.384 136.845 498.386 135.813C497.421 134.749 496.14 133.834 494.543 133.069C492.947 132.303 491.233 131.571 489.403 130.873C487.174 130.008 484.962 129.026 482.766 127.928C480.57 126.831 478.74 125.383 477.276 123.587C475.846 121.79 475.131 119.428 475.131 116.5C475.131 113.706 475.829 111.277 477.227 109.214C478.624 107.151 480.57 105.554 483.065 104.423C485.594 103.292 488.488 102.727 491.749 102.727C496.673 102.727 501.513 103.958 506.271 106.42L503.826 113.805C502.761 113.107 501.53 112.491 500.133 111.959C498.735 111.393 497.305 110.961 495.841 110.661C494.377 110.362 492.996 110.212 491.699 110.212C489.27 110.212 487.307 110.778 485.81 111.909C484.313 113.007 483.564 114.487 483.564 116.351C483.564 117.415 483.864 118.397 484.463 119.295C485.095 120.16 486.143 121.025 487.607 121.89C489.071 122.755 491.1 123.72 493.695 124.784C495.991 125.716 498.253 126.781 500.482 127.978C502.711 129.143 504.558 130.657 506.022 132.52C507.519 134.349 508.267 136.745 508.267 139.706C508.267 142.634 507.485 145.229 505.922 147.491C504.391 149.72 502.245 151.467 499.484 152.731C496.756 153.995 493.595 154.627 490.002 154.627C484.047 154.627 478.491 152.847 473.334 149.288Z" fill="white"/>
<path d="M462.305 153.629H455.269L454.72 147.042C452.89 149.404 450.561 151.267 447.733 152.631C444.905 153.962 441.745 154.627 438.251 154.627C434.658 154.627 431.448 153.929 428.62 152.531C425.792 151.101 423.563 149.155 421.933 146.693C420.336 144.231 419.537 141.436 419.537 138.309C419.537 135.015 420.402 132.12 422.132 129.625C423.895 127.097 426.274 125.117 429.269 123.687C432.296 122.256 435.723 121.541 439.549 121.541C442.044 121.541 444.589 121.857 447.184 122.489C449.779 123.088 452.092 123.919 454.121 124.984V122.888C454.121 120.226 453.456 117.964 452.125 116.101C450.794 114.205 449.014 112.757 446.785 111.759C444.556 110.728 442.094 110.212 439.399 110.212C437.07 110.212 434.691 110.645 432.263 111.51C429.834 112.342 427.505 113.639 425.276 115.402L422.581 108.366C425.476 106.503 428.52 105.105 431.714 104.174C434.908 103.209 438.068 102.727 441.196 102.727C445.521 102.727 449.247 103.608 452.374 105.372C455.535 107.102 457.98 109.58 459.71 112.807C461.44 116.001 462.305 119.794 462.305 124.186V153.629ZM439.699 147.142C442.26 147.142 444.606 146.609 446.735 145.545C448.864 144.48 450.594 142.95 451.925 140.954C453.256 138.924 453.988 136.529 454.121 133.767V132.919C452.291 131.488 450.228 130.39 447.933 129.625C445.671 128.827 443.358 128.427 440.996 128.427C437.303 128.427 434.209 129.326 431.714 131.122C429.252 132.919 428.021 135.198 428.021 137.959C428.021 139.689 428.52 141.253 429.518 142.65C430.549 144.048 431.947 145.146 433.71 145.944C435.473 146.742 437.47 147.142 439.699 147.142Z" fill="white"/>
<path d="M406.562 153.63H399.276L398.826 146.344C396.531 148.906 393.736 150.936 390.442 152.433C387.149 153.897 383.556 154.628 379.663 154.628C374.739 154.628 370.331 153.497 366.438 151.235C362.546 148.973 359.468 145.879 357.206 141.953C354.977 138.027 353.862 133.602 353.862 128.678C353.862 123.721 354.977 119.296 357.206 115.403C359.468 111.478 362.546 108.384 366.438 106.121C370.331 103.859 374.739 102.728 379.663 102.728C383.422 102.728 386.899 103.41 390.093 104.774C393.32 106.138 396.082 108.034 398.377 110.463V78.7734H406.562V153.63ZM380.362 147.243C383.689 147.243 386.716 146.477 389.444 144.947C392.172 143.383 394.335 141.271 395.932 138.609C397.562 135.914 398.377 132.87 398.377 129.477V127.78C398.377 124.386 397.562 121.359 395.932 118.697C394.335 116.002 392.172 113.89 389.444 112.359C386.716 110.829 383.689 110.064 380.362 110.064C376.902 110.064 373.808 110.879 371.079 112.509C368.351 114.139 366.189 116.352 364.592 119.146C363.028 121.941 362.246 125.102 362.246 128.628C362.246 132.155 363.028 135.332 364.592 138.16C366.189 140.955 368.351 143.167 371.079 144.797C373.808 146.427 376.902 147.243 380.362 147.243Z" fill="white"/>
<path d="M337.992 87.9555C336.595 87.9555 335.414 87.4731 334.449 86.5083C333.518 85.5102 333.052 84.3125 333.052 82.9152C333.052 81.5511 333.518 80.3867 334.449 79.4218C335.414 78.457 336.595 77.9746 337.992 77.9746C339.423 77.9746 340.621 78.457 341.585 79.4218C342.55 80.3867 343.033 81.5511 343.033 82.9152C343.033 84.3125 342.55 85.5102 341.585 86.5083C340.621 87.4731 339.423 87.9555 337.992 87.9555ZM342.084 153.63H333.9V103.725H342.084V153.63Z" fill="white"/>
<path d="M318.18 153.63H309.397V91.0999L284.395 141.054H276.46L251.558 91.3993V153.63H242.774V78.7734H254.103L280.452 131.822L306.702 78.7734H318.18V153.63Z" fill="white"/>
<path d="M57.6289 207.665L100.649 232.584L143.668 207.665L114.866 157.613C110.345 158.653 105.576 159.209 100.649 159.209C95.721 159.209 90.9522 158.653 86.4308 157.613L57.6289 207.665Z" fill="white"/>
<path d="M43.2891 199.359L70.7864 151.574C67.155 149.511 63.8574 147.082 60.9733 144.352L19.7426 185.72L43.2891 199.359Z" fill="white"/>
<path d="M19.7428 46.8644L60.9734 88.2322C63.8575 85.5026 67.155 83.0737 70.7863 81.0108L43.289 33.2255L19.7428 46.8644Z" fill="white"/>
<path d="M57.6288 24.9193L86.4307 74.9716C90.9521 73.9315 95.721 73.3751 100.649 73.3751C105.576 73.3751 110.345 73.9314 114.866 74.9716L143.668 24.9192L100.649 0.000586285L57.6288 24.9193Z" fill="white"/>
<path d="M158.008 33.2254L130.511 81.0106C141.5 87.2535 149.432 96.8475 152.101 107.986L201.032 107.986L201.032 58.1464L158.008 33.2254Z" fill="white"/>
<path d="M201.032 124.599L152.101 124.599C149.432 135.737 141.499 145.331 130.51 151.574L158.008 199.359L201.032 174.438L201.032 124.599Z" fill="white"/>
<path d="M114.447 116.292C114.447 112.469 117.536 109.37 121.346 109.37C125.156 109.37 128.245 112.469 128.245 116.292C128.245 120.115 125.156 123.214 121.346 123.214C117.536 123.214 114.447 120.115 114.447 116.292Z" fill="white"/>
<path d="M93.4044 116.292C93.4044 112.469 96.4933 109.37 100.304 109.37C104.114 109.37 107.203 112.469 107.203 116.292C107.203 120.115 104.114 123.214 100.304 123.214C96.4933 123.214 93.4044 120.115 93.4044 116.292Z" fill="white"/>
<path d="M72.3619 116.292C72.3619 112.469 75.4508 109.37 79.2611 109.37C83.0714 109.37 86.1603 112.469 86.1603 116.292C86.1603 120.115 83.0714 123.214 79.2611 123.214C75.4508 123.214 72.3619 120.115 72.3619 116.292Z" fill="white"/>
<path d="M735.781 136.142L730.666 141.349V153.497H713.312V85.7227H730.666V121.254L748.386 103.991H768.938L748.386 125.182L770.673 153.497H749.665L735.781 136.142Z" fill="white"/>
<path d="M681.354 154.319C677.214 154.319 673.134 153.862 669.115 152.948C665.096 151.974 661.868 150.726 659.433 149.203L664.639 137.329C666.892 138.73 669.571 139.856 672.677 140.709C675.783 141.5 678.858 141.896 681.902 141.896C684.703 141.896 686.682 141.622 687.839 141.074C689.057 140.465 689.666 139.613 689.666 138.517C689.666 137.421 688.936 136.659 687.474 136.233C686.074 135.746 683.82 135.289 680.715 134.863C676.757 134.376 673.377 133.737 670.576 132.945C667.836 132.153 665.461 130.692 663.452 128.561C661.442 126.429 660.437 123.445 660.437 119.609C660.437 116.443 661.381 113.642 663.269 111.206C665.157 108.709 667.897 106.761 671.49 105.36C675.143 103.899 679.497 103.168 684.551 103.168C688.144 103.168 691.706 103.533 695.238 104.264C698.77 104.995 701.723 106.03 704.098 107.37L698.892 119.153C694.507 116.717 689.758 115.499 684.643 115.499C681.902 115.499 679.893 115.834 678.614 116.504C677.335 117.113 676.696 117.935 676.696 118.97C676.696 120.127 677.396 120.949 678.797 121.436C680.197 121.862 682.511 122.319 685.739 122.806C689.818 123.415 693.198 124.115 695.877 124.907C698.557 125.699 700.871 127.16 702.819 129.291C704.829 131.362 705.833 134.285 705.833 138.06C705.833 141.166 704.89 143.967 703.002 146.463C701.114 148.899 698.313 150.817 694.599 152.218C690.945 153.618 686.53 154.319 681.354 154.319Z" fill="white"/>
<path d="M631.245 141.074C633.619 141.074 635.659 140.739 637.364 140.069C639.13 139.4 640.896 138.304 642.662 136.781L651.705 146.281C647.016 151.639 640.013 154.319 630.697 154.319C624.912 154.319 619.827 153.222 615.443 151.03C611.058 148.838 607.648 145.793 605.213 141.896C602.838 137.999 601.65 133.584 601.65 128.652C601.65 123.78 602.838 119.427 605.213 115.59C607.588 111.693 610.845 108.648 614.986 106.456C619.188 104.264 623.877 103.168 629.052 103.168C633.863 103.168 638.247 104.173 642.205 106.182C646.224 108.131 649.421 111.023 651.796 114.86C654.171 118.635 655.358 123.141 655.358 128.378L620.01 135.137C621.897 139.095 625.642 141.074 631.245 141.074ZM629.144 115.499C626.16 115.499 623.724 116.443 621.837 118.33C619.949 120.157 618.883 122.806 618.64 126.277L638.735 122.349C638.126 120.279 636.969 118.635 635.264 117.417C633.559 116.138 631.519 115.499 629.144 115.499Z" fill="white"/>
<path d="M518.323 78.6426H553.719C561.917 78.6426 569.189 80.1753 575.533 83.2408C581.878 86.3063 586.797 90.6549 590.29 96.2868C593.784 101.919 595.53 108.513 595.53 116.07C595.53 123.627 593.784 130.221 590.29 135.853C586.797 141.485 581.878 145.833 575.533 148.899C569.189 151.964 561.917 153.497 553.719 153.497H518.323V78.6426ZM552.863 136.601C559.279 136.601 564.412 134.783 568.262 131.148C572.183 127.512 574.143 122.486 574.143 116.07C574.143 109.654 572.183 104.628 568.262 100.992C564.412 97.3562 559.279 95.5383 552.863 95.5383H539.496V136.601H552.863Z" fill="white"/>
</svg>
